<svg height="216.956937" viewBox="0 0 321.85 151.58" width="460.920962" xmlns="http://www.w3.org/2000/svg"><path d="m98.94 79.14a13 13 0 0 0 -4.29 1.8 10.82 10.82 0 0 0 -2.9 2.76 22.09 22.09 0 0 0 -1.75 2.87 19.75 19.75 0 0 0 -1.5 4.83 51.6 51.6 0 0 0 -.7 7.21l-.06 1.72a.74.74 0 0 1 0-.14 20.62 20.62 0 0 0 -2.13-5.07 13.38 13.38 0 0 0 -3-3.52 10.82 10.82 0 0 0 -3.61-1.9 21.71 21.71 0 0 0 -3.28-.79 19.72 19.72 0 0 0 -5.07.07 53.53 53.53 0 0 0 -7.06 1.57l-1.59.45a.62.62 0 0 0 .12-.08 20.14 20.14 0 0 0 4.16-3.59 13.13 13.13 0 0 0 2.42-4 10.86 10.86 0 0 0 .72-3.93 23.43 23.43 0 0 0 -.26-3.36 19.74 19.74 0 0 0 -1.64-4.79 51.53 51.53 0 0 0 -3.67-6.23l-1-1.43.12.08a20 20 0 0 0 4.69 2.84 12.84 12.84 0 0 0 4.53 1.07 10.74 10.74 0 0 0 4-.52 23.41 23.41 0 0 0 3.11-1.29 20.33 20.33 0 0 0 4.06-3 52.34 52.34 0 0 0 4.78-5.42l1.03-1.35s0 .09 0 .13a20.58 20.58 0 0 0 -1.25 5.35 12.94 12.94 0 0 0 .39 4.64 10.79 10.79 0 0 0 1.69 3.61 23.89 23.89 0 0 0 2.2 2.56 19.37 19.37 0 0 0 4.14 2.91 49.74 49.74 0 0 0 6.63 2.89l1.62.6h-.15a20.2 20.2 0 0 0 -5.5.45z" fill="none"/><g fill="#31006f"><path d="m104.69 95.64-16.53-.64h-.16v.41s0 .35 0 .53c-.07.84-.12 1.73-.16 2.69l-.06 1.72a.74.74 0 0 1 0-.14 20.62 20.62 0 0 0 -2.13-5.07 13.38 13.38 0 0 0 -3-3.52 11.17 11.17 0 0 0 -2.48-1.46c.06.38.1.77.14 1.15v.18c0 .4.06.81.08 1.22v.17 1.19.2c0 .42 0 .83-.07 1.25v.16c0 .42-.08.84-.16 1.41s-.14.84-.25 1.41-.19.84-.33 1.39-.24.85-.41 1.4-.29.88-.49 1.37-.29.75-.49 1.2l-.07.15c-.2.44-.41.89-.64 1.33l-.07.15-.4.76v.13l-.3.41-.33.52-.45.71-.9 1.4 5.06 18.58c.52-.39 1.06-.77 1.52-1.19a22.59 22.59 0 0 0 3.9-4.83 22.21 22.21 0 0 0 2.69-6.49 26.41 26.41 0 0 0 .74-5.59 7.51 7.51 0 0 1 1.13-.42c.13 0 .23 0 .35-.08l.65-.13.35-.05h.38.33a17.33 17.33 0 0 1 3.6.54l19.36 5.09c-.35-1.82-.79-3.7-1.34-5.67a43.34 43.34 0 0 0 -6.2-13.4l-1.47-.06z"/><path d="m90 86.57a19.75 19.75 0 0 0 -1.5 4.83c-.1.52-.19 1.11-.27 1.71l17.92.71-.05-.07c-.29-.35-.58-.68-.88-1a.52.52 0 0 0 -.1-.11c-.29-.32-.59-.64-.89-.94l-.12-.12c-.3-.29-.6-.58-.91-.86l-.13-.12c-.3-.27-.61-.54-.93-.79l-.14-.11c-.31-.25-.63-.5-1-.73l-.14-.1-1-.66-.16-.1q-.5-.31-1-.6l-.16-.09c-.33-.19-.67-.37-1-.54l-.16-.07c-.34-.17-.69-.33-1-.47l-.16-.07c-.34-.15-.7-.29-1.05-.41l-.16-.06c-.36-.13-.72-.24-1.09-.35h-.15c-.37-.1-.74-.2-1.11-.28h-.15c-.38-.08-.76-.16-1.13-.22h-.14-.25c-.35.45-.71 1.05-.99 1.62z"/><path d="m91 84.79h.25.14c.37.06.75.14 1.13.22h.15c.37.08.74.18 1.11.28h.15c.37.11.73.22 1.09.35l.16.06c.35.12.71.26 1.05.41l.16.07c.35.14.7.3 1 .47l.16.07c.34.17.68.35 1 .54l.16.09q.49.28 1 .6l.16.1 1 .66.14.1c.32.23.64.48 1 .73l.14.11c.32.25.63.52.93.79l.13.12c.31.28.61.57.91.86l.12.12c.3.3.6.62.89.94a.52.52 0 0 1 .1.11c.3.33.59.66.88 1l.05.07-17.92-.71c.08-.6.17-1.19.27-1.71a19.75 19.75 0 0 1 1.49-4.67c.29-.56.65-1.17 1-1.78"/><path d="m92.17 72.29a19.37 19.37 0 0 0 4.14 2.91c.31.18.67.35 1 .53l6.06-16.39-.62.28c-.65.27-1.29.54-1.9.85-.26.13-.5.27-.75.41-.58.31-1.15.62-1.69 1-.25.16-.49.34-.74.52-.49.34-1 .69-1.45 1.05l-.72.62c-.42.38-.85.76-1.25 1.16l-.66.71c-.36.4-.72.8-1.06 1.23-.2.26-.4.53-.59.8-.3.43-.61.86-.89 1.31l-.5.88c0 .07-.07.15-.11.21a23.3 23.3 0 0 0 1.73 1.92z"/><path d="m103.39 59.34-6.06 16.39c-.35-.18-.71-.35-1-.53a19.37 19.37 0 0 1 -4.14-2.91 23.3 23.3 0 0 1 -1.71-2c0-.06.07-.14.11-.21l.5-.88c.28-.45.59-.88.89-1.31.19-.27.39-.54.59-.8.34-.43.7-.83 1.06-1.23l.66-.71c.4-.4.83-.78 1.25-1.16l.72-.62c.46-.36 1-.71 1.45-1.05.25-.18.49-.36.74-.52.54-.35 1.11-.66 1.69-1 .25-.14.49-.28.75-.41.61-.31 1.25-.58 1.9-.85l.62-.28"/><path d="m79.26 65.81a20.33 20.33 0 0 0 4.06-3l.41-.42-14-11.06c.06 1 .17 2 .32 2.9a27.18 27.18 0 0 0 .59 2.77 25.94 25.94 0 0 0 .84 2.58s0 0 0 0a24.61 24.61 0 0 0 1.11 2.42s0 0 0 0a23.62 23.62 0 0 0 1.41 2.25s0 0 0 0a22.23 22.23 0 0 0 1.57 2c.22.25.47.47.7.71a24.77 24.77 0 0 0 2.99-1.15z"/><path d="m69.73 51.29 14 11.06-.41.42a20.33 20.33 0 0 1 -4.06 3 24.77 24.77 0 0 1 -3 1.25c-.23-.24-.48-.46-.7-.71a22.23 22.23 0 0 1 -1.57-2s0 0 0 0a23.62 23.62 0 0 1 -1.38-2.31s0 0 0 0a24.61 24.61 0 0 1 -1.09-2.39s0 0 0 0a25.94 25.94 0 0 1 -.88-2.61 27.18 27.18 0 0 1 -.59-2.74c-.15-.94-.26-1.91-.32-2.9"/><path d="m75.74 88.91a19.72 19.72 0 0 0 -5.07.07c-.47.07-1 .14-1.5.24l5 17.89c.27-.42.53-.84.77-1.26.24-.42.47-.83.68-1.26a0 0 0 0 0 0 0c.22-.41.42-.83.6-1.24a.17.17 0 0 0 0 0c.19-.42.36-.83.52-1.24 0 0 0-.05 0-.07.16-.4.3-.82.43-1.22a.94.94 0 0 1 0-.09c.13-.41.25-.8.35-1.21v-.1c.1-.4.2-.8.28-1.19 0 0 0-.09 0-.13.08-.39.15-.78.21-1.18a.59.59 0 0 1 0-.13c0-.39.09-.78.13-1.17 0 0 0-.09 0-.14 0-.39.06-.77.07-1.16v-.15q0-.57 0-1.14v-.16c0-.39 0-.77-.07-1.14v-.17c0-.37-.08-.75-.14-1.13 0 0 0-.11 0-.16 0-.25-.09-.5-.13-.74a18.45 18.45 0 0 0 -2.13-.62z"/><path d="m73.61 88.78a16.25 16.25 0 0 1 2.13.13 18.45 18.45 0 0 1 2.3.52c0 .24.09.49.13.74v.16c.06.38.1.76.14 1.13v.17c0 .37 0 .75.07 1.14v.16q0 .57 0 1.14v.15c0 .39 0 .77-.07 1.16v.14c0 .39-.08.78-.13 1.17a.59.59 0 0 0 0 .13c-.06.4-.13.79-.21 1.18v.13c-.08.39-.18.79-.28 1.19v.1c-.1.41-.22.8-.35 1.21a.94.94 0 0 0 0 .09c-.13.4-.27.82-.43 1.22v.07c-.16.41-.33.82-.52 1.24a.17.17 0 0 1 0 0c-.18.41-.38.83-.6 1.24a0 0 0 0 1 0 0c-.21.43-.44.84-.68 1.26-.24.42-.5.84-.77 1.26l-5-17.89c.53-.1 1-.17 1.5-.24a21.79 21.79 0 0 1 2.94-.2"/><path d="m69.36 79.19a21.77 21.77 0 0 0 -.25-3.11 19.74 19.74 0 0 0 -1.64-4.79c-.11-.24-.25-.49-.38-.74l-15.4 10.28c1 .25 1.93.45 2.88.61l1.42.18a23.31 23.31 0 0 0 13.37-2.43z"/><path d="m67.09 70.55c.13.25.27.5.38.74a19.74 19.74 0 0 1 1.64 4.79 21.77 21.77 0 0 1 .25 3.11 23 23 0 0 1 -10.7 2.57c-.88 0-1.77-.05-2.67-.14l-1.42-.18c-1-.16-1.91-.36-2.88-.61z"/><path d="m129.13 96.61h-.56l-18.64-.74a46.82 46.82 0 0 1 5.62 12.8c.56 2 1 3.95 1.38 5.83l.16.88 4 1a24 24 0 0 1 3.41 1.13s4.2 1.33 4.76 3.82l.61-15.26a40.63 40.63 0 0 0 -.3-7.58c-.14-.65-.3-1.25-.44-1.88z"/><path d="m73.45 111.32a47.15 47.15 0 0 1 -10.45 9.31c-1.83 1.22-3.67 2.32-5.47 3.29l-.77.41.2 3.34a21.76 21.76 0 0 1 0 3.59s0 4.64-2.16 5.71l14.7-4.14a41.88 41.88 0 0 0 7.12-2.62c.66-.34 1.25-.71 1.85-1.08l-.16-.56z"/><path d="m123 40.42a41.83 41.83 0 0 0 -7.3-2.05 24.68 24.68 0 0 0 -2.5-.26l-.22.58-6.53 17.69a45.1 45.1 0 0 1 11.69-1.45h2.23c2.25.08 4.44.28 6.5.56l.85.12 2.41-3.61a20.25 20.25 0 0 1 2.13-2.9s2.33-3.59 5.1-3.35z"/><path d="m67.86 47.44a46.8 46.8 0 0 1 3-13.67 63.62 63.62 0 0 1 2.87-6.65l.37-.74-2.42-3a21.14 21.14 0 0 1 -2.1-2.92s-2.19-3.31-1.58-5.85l-9.47 12a41 41 0 0 0 -4.2 6.32 23.83 23.83 0 0 0 -1.33 2.8l.58.45z"/><path d="m35.38 74.36a64.17 64.17 0 0 1 -5.38-4.72l-.6-.59-3 1.15a22.2 22.2 0 0 1 -3.4 1.1s-3.93.89-6.09-.29l8.47 12.7a40.9 40.9 0 0 0 4.71 6 23.19 23.19 0 0 0 2.11 1.91l.57-.38 14.66-9.78a47 47 0 0 1 -12.05-7.1z"/><path d="m104.41 78.68a22.48 22.48 0 0 0 -2.34 0c-.24 0-.47 0-.7 0a16.45 16.45 0 0 0 -2.43.39 13.23 13.23 0 0 0 -4.29 1.79 13.52 13.52 0 0 0 -1.35 1.14 11.37 11.37 0 0 0 -1 1.07 0 0 0 0 1 0 0l.73.15.24.06 1.06.28h.17c.39.11.77.24 1.17.37l.22.08 1.1.43.16.07c.38.17.76.33 1.13.52l.17.08c.37.18.73.37 1.1.58l.17.1 1 .64.16.1c.36.23.7.46 1 .67a1.7 1.7 0 0 1 .21.15c.33.24.66.49 1 .75a1.24 1.24 0 0 1 .18.14c.34.27.67.56 1 .85l.14.13 1 .92.12.12c.32.33.64.66.86.92l.16.16h.05l.43.5.44.53 1.58 1.63 19.56.77a21 21 0 0 0 -.74-2 22.87 22.87 0 0 0 -3.39-5.21 22.16 22.16 0 0 0 -5.34-4.55 26.54 26.54 0 0 0 -4.94-2.39 7.59 7.59 0 0 1 .14-3.3 17.47 17.47 0 0 1 1.66-3.32l10.64-16.6a63.22 63.22 0 0 0 -6.32-.56c-1.24 0-2.42 0-3.61 0l-1.83.07c-.86.06-1.7.15-2.53.26-.54.06-1.09.12-1.62.21-.88.14-1.72.32-2.55.52-.42.1-.87.17-1.28.28s-.83.28-1.24.41l-.51 1.41-.29.79-5.76 15.6v.12c.23.11.42.21.66.31l.42.17c.87.36 1.79.73 2.82 1.11l1.62.59h-.15z"/><path d="m89.12 56.14a20.49 20.49 0 0 0 -1.25 5.35 14 14 0 0 0 0 2.51 11 11 0 0 0 .38 2.12 12.05 12.05 0 0 0 1 2.48l.19-.34c.3-.48.62-.94 1-1.41l.1-.14.54-.73c.36-.46.76-.9 1.16-1.34l.19-.2c.16-.19.33-.38.51-.56.4-.4.81-.77 1.23-1.14l.13-.11.27-.22.49-.43c.5-.4 1-.77 1.55-1.12l.19-.14c.21-.15.42-.3.61-.42.53-.34 1.08-.65 1.64-1l.16-.08.25-.14c.18-.11.37-.21.55-.3.61-.31 1.26-.58 1.89-.85l.75-.3 1.56-.63 7-18.88c-.52 0-1 0-1.54 0a23.64 23.64 0 0 0 -6 1.62 22.54 22.54 0 0 0 -6 3.67 26.45 26.45 0 0 0 -3.86 4 6.94 6.94 0 0 1 -3-1.24 17 17 0 0 1 -2.6-2.56l-12.82-15.61a63.26 63.26 0 0 0 -2.79 6.46 43.56 43.56 0 0 0 -2.86 14.48l1.15.92 14 11.05.11.09c.25-.27.48-.49.74-.79l.07-.08c.71-.81 1.47-1.73 2.27-2.75l1.1-1.38z"/><path d="m63.68 64.88-.84-1.26.08.08a20 20 0 0 0 4.69 2.84 12.84 12.84 0 0 0 4.53 1.07 13.65 13.65 0 0 0 1.59-.06h.34a21.69 21.69 0 0 1 -1.67-2.15 24.59 24.59 0 0 1 -1.46-2.44v-.07a22.33 22.33 0 0 1 -1.05-2.29l-.09-.23a27.17 27.17 0 0 1 -.9-2.77v-.12c-.22-.82-.4-1.69-.55-2.55v-.2-.23c-.26-.7-.35-1.5-.35-2.21h-.06v-.84s0 0 0-.06 0 0 0 0v-1.57l-15.46-12.14c-.08.3-.2.6-.26.91a23.07 23.07 0 0 0 1.32 13 26.71 26.71 0 0 0 2.78 5.1 7.52 7.52 0 0 1 -2.24 2.31 16.52 16.52 0 0 1 -3.24 1.67l-19.52 7.64a62.48 62.48 0 0 0 5.22 4.58 43.51 43.51 0 0 0 12.89 7.2l1.22-.82 15.41-10.27.12-.09c-.14-.25-.25-.47-.41-.73-.58-1-1.22-2-2-3.12z"/><path d="m62 91a.62.62 0 0 0 .12-.08 20.14 20.14 0 0 0 4.16-3.59 13.13 13.13 0 0 0 2.42-4 11.82 11.82 0 0 0 .56-2.07 24.87 24.87 0 0 1 -10.55 2.33 28.22 28.22 0 0 1 -2.88-.15c-.49 0-1-.12-1.51-.2-.74-.12-1.46-.29-2.19-.46l-.82-.21-1.58-.41-15.86 10.56c.33.22.65.47 1 .66a22.33 22.33 0 0 0 5.8 2.22 20.82 20.82 0 0 0 3.08.5c.3 0 .61 0 .92.05a23 23 0 0 0 3 0 26.66 26.66 0 0 0 5.59-1 7.56 7.56 0 0 1 1.64 2.82 16.83 16.83 0 0 1 .59 3.59l1.19 20.74c1.72-.93 3.49-2 5.31-3.2a43.53 43.53 0 0 0 10.81-10.1l-.4-1.41-.23-.82-4.8-17.07v-.12h-.12c-1.11.25-2.29.55-3.61.92z"/><path d="m163.89 107.26v-55.9h1.25c6.2 0 12.4-.12 18.6.06 6.5.18 12.7 1.64 18.11 5.49 6.28 4.48 9.29 10.81 10.1 18.3a32.84 32.84 0 0 1 -1.66 15.35c-3.26 8.67-9.81 13.55-18.62 15.51a53.85 53.85 0 0 1 -10 1.16c-5.72.18-11.45 0-17.18 0zm11.56-10.2c4.27-.34 8.4-.3 12.36-1.07 6.34-1.24 10.68-5.06 12.06-11.56a29.12 29.12 0 0 0 .48-7.34c-.35-7.09-4.58-12.24-11.35-14.17a17.21 17.21 0 0 0 -3.84-.77c-3.22-.11-6.45 0-9.68 0z"/><path d="m215.73 100.79 6.16-9.43a11.23 11.23 0 0 1 .93.64 22.31 22.31 0 0 0 16.53 5.66 14.69 14.69 0 0 0 4.51-1.19 5.18 5.18 0 0 0 3.18-5 4.49 4.49 0 0 0 -3.11-4.47c-2.39-.92-4.89-1.51-7.34-2.27a99.14 99.14 0 0 1 -9.85-3.16c-6.12-2.61-9.46-7.23-9.32-14.11s3.25-11.94 9.45-14.94c5.28-2.55 10.89-2.45 16.51-1.61a29.3 29.3 0 0 1 11.62 4.16c.52.33 1 .71 1.59 1.13-2 3.17-3.91 6.23-5.93 9.43l-1.66-1.1a20.32 20.32 0 0 0 -14.46-3.53c-3.69.51-5.62 2.72-5.56 6.21a4.11 4.11 0 0 0 3 4c2.45.88 5 1.45 7.52 2.18 3 .88 6.09 1.61 9 2.72 10.08 3.84 11.74 12.65 8.6 21.16-1.93 5.21-6.06 8.32-11.28 9.69a33.22 33.22 0 0 1 -28.82-5.16c-.42-.27-.76-.59-1.27-1.01z"/><path d="m303.94 61.42h-14.7v45.85h-11.47v-45.85h-15.63v-10h42.78v10z"/></g></svg>